# xmcd CD database file
#
# Track frame offsets:
#	150
#	13612
#	27448
#	40418
#	61541
#	71915
#	88413
#	102737
#	123382
#	136218
#	150417
#	166067
#
# Disc length: 2414 seconds
#
# Revision: 0
# Processed by: cddbd v1.5.1PL0 Copyright (c) Steve Scherf et al.
# Submitted via: CDex 1.50beta10
#
DISCID=9e096c0c
DTITLE=Various Artist - Gospel Jukebox 17
DYEAR=2005
DGENRE=Country
TTITLE0=Gene Watson/Will The Circle Be Unbroken
TTITLE1=Frank Denton/Silver Dream and Golden Memories
TTITLE2=Jerri Sue Baken/I Will Never Thirst Again
TTITLE3=Otha Geeslin/Why Not Tonight
TTITLE4=Gennie Campbell/Second Fiddle
TTITLE5=Curtis Dykes/Brand New Man
TTITLE6=Bill Sumpter/Peace In The Valley
TTITLE7=Jesus Hernandez/Just For Me
TTITLE8=Downings Plus/Angel In Heaven
TTITLE9=Jerry Davidson/The Song Writer's Gospel
TTITLE10=Glorya Wilson/Oh Lord, I Need A Saviour Too
TTITLE11=Jennifer Meeker/I'll Go On For You
EXTD=YEAR: 2005
EXTT0=
EXTT1=
EXTT2=
EXTT3=
EXTT4=
EXTT5=
EXTT6=
EXTT7=
EXTT8=
EXTT9=
EXTT10=
EXTT11=
PLAYORDER=
